<?xml version="1.0" standalone="no"?><!DOCTYPE svg PUBLIC "-//W3C//DTD SVG 1.1//EN" "http://www.w3.org/Graphics/SVG/1.1/DTD/svg11.dtd"><svg t="1667355527763" class="icon" viewBox="0 0 1024 1024" version="1.1" xmlns="http://www.w3.org/2000/svg" p-id="3466" xmlns:xlink="http://www.w3.org/1999/xlink" width="32" height="32"><path d="M98.357122 818.73194c-14.213723 0-25.764803 11.532661-25.764803 25.76071 0 14.233166 11.55108 25.770943 25.764803 25.770943M922.866648 818.73194 98.128925 818.73194c-14.21884 0-25.770943 11.532661-25.770943 25.76071 0 14.233166 11.552104 25.770943 25.770943 25.770943l824.737724 0c14.213723 0 25.764803-11.538801 25.764803-25.770943C948.633498 830.262554 937.081395 818.73194 922.866648 818.73194zM98.357122 483.770052c-14.213723 0-25.764803 11.537777-25.764803 25.76992 0 14.229073 11.55108 25.764803 25.764803 25.764803M922.866648 483.770052 98.128925 483.770052c-14.21884 0-25.770943 11.537777-25.770943 25.76992 0 14.229073 11.552104 25.764803 25.770943 25.764803l824.737724 0c14.213723 0 25.764803-11.537777 25.764803-25.764803C948.633498 495.307829 937.081395 483.770052 922.866648 483.770052zM98.357122 148.815327c-14.213723 0-25.764803 11.539824-25.764803 25.768897 0 14.227026 11.55108 25.76378 25.764803 25.76378M98.128925 200.346981l824.737724 0c14.213723 0 25.764803-11.536754 25.764803-25.76378 0-14.229073-11.55108-25.768897-25.764803-25.768897L98.128925 148.814304c-14.21884 0-25.770943 11.539824-25.770943 25.768897C72.359005 188.81125 83.911108 200.346981 98.128925 200.346981z" p-id="3467"></path></svg>