<?xml version="1.0" standalone="no"?><!DOCTYPE svg PUBLIC "-//W3C//DTD SVG 1.1//EN" "http://www.w3.org/Graphics/SVG/1.1/DTD/svg11.dtd"><svg t="1667355554449" class="icon" viewBox="0 0 1024 1024" version="1.1" xmlns="http://www.w3.org/2000/svg" p-id="4001" xmlns:xlink="http://www.w3.org/1999/xlink" width="32" height="32"><path d="M360 475.2H178c-63.4 0-115-51.6-115-115v-182c0-63.5 51.6-115.1 115-115.1h182c63.4 0 115.1 51.6 115.1 115.1v182c0 63.4-51.6 115-115.1 115zM178 113.1c-35.9 0-65.1 29.2-65.1 65.1v182c0 35.9 29.2 65.1 65.1 65.1h182c35.9 0 65.1-29.2 65.1-65.1v-182c0-35.9-29.2-65.1-65.1-65.1H178zM842.4 465.3h-177c-62.1 0-112.6-50.5-112.6-112.6v-177c0-62.1 50.5-112.6 112.6-112.6h177c62.1 0 112.6 50.5 112.6 112.6v177c0 62.1-50.5 112.6-112.6 112.6z m-177-352.2c-34.5 0-62.6 28.1-62.6 62.6v177c0 34.5 28.1 62.6 62.6 62.6h177c34.5 0 62.6-28.1 62.6-62.6v-177c0-34.5-28.1-62.6-62.6-62.6h-177zM358 962.2H177.4C114.3 962.2 63 910.9 63 847.8V667.1c0-63.1 51.3-114.4 114.4-114.4H358c63.1 0 114.4 51.3 114.4 114.4v180.7c0.1 63.1-51.3 114.4-114.4 114.4zM177.4 602.7c-35.5 0-64.4 28.9-64.4 64.4v180.7c0 35.5 28.9 64.4 64.4 64.4H358c35.5 0 64.4-28.9 64.4-64.4V667.1c0-35.5-28.9-64.4-64.4-64.4H177.4zM840.7 962.2H660.4c-63 0-114.3-51.3-114.3-114.3V667.6c0-63 51.3-114.3 114.3-114.3h180.4c63 0 114.3 51.3 114.3 114.3V848c-0.1 63-51.4 114.2-114.4 114.2zM660.4 603.3c-35.4 0-64.3 28.8-64.3 64.3V848c0 35.4 28.8 64.3 64.3 64.3h180.4c35.4 0 64.3-28.8 64.3-64.3V667.6c0-35.4-28.8-64.3-64.3-64.3H660.4z" p-id="4002"></path></svg>